#!OML:ASF F:\VICON\USERDATA\INSTALL\rory3\rory3.ASF
:FULLY-SPECIFIED
:DEGREES
132
root 1.61922 16.3449 24.1566 -153.649 -9.20522 -180.48
lowerback -7.99743 -4.61975 -1.23707
upperback -7.1742 -6.8014 3.9799
thorax -2.37221 -3.61109 4.40506
lowerneck -16.6443 1.70509 -0.419142
upperneck 26.7927 4.48759 -2.21473
head 11.5438 2.15064 0.00851513
rclavicle 6.66923e-014 -3.69739e-014
rhumerus -37.6343 -9.46734 -63.3569
rradius 34.5662
rwrist -37.3104
rhand -13.0588 -1.56472
rfingers 7.12502
rthumb 13.0365 -31.1373
lclavicle 6.66923e-014 -3.69739e-014
lhumerus -51.5348 -11.4562 77.8463
lradius 26.774
lwrist 35.797
lhand -19.0055 30.1219
lfingers 7.12502
lthumb 7.29982 59.976
rfemur -41.7464 7.96373 28.072
rtibia 55.4431
rfoot -31.5586 -22.6851
rtoes 15.3024
lfemur -51.1816 2.67034 -19.6787
ltibia 77.0025
lfoot -3.72171 7.70169
ltoes -21.986
133
root 1.59152 16.182 24.0744 -151.99 -7.45901 -178.361
lowerback -8.7384 -3.43655 1.05776
upperback -7.87232 -5.55029 4.17693
thorax -2.98637 -3.14735 3.42183
lowerneck -16.9067 1.83324 -0.12957
upperneck 26.7132 4.61763 -2.42819
head 11.5802 2.19845 -0.0979837
rclavicle 2.25124e-014 -9.93923e-015
rhumerus -38.4643 -7.66832 -66.0274
rradius 37.1297
rwrist -39.9826
rhand -12.6194 -2.4021
rfingers 7.12502
rthumb 13.46 -31.9472
lclavicle 2.25124e-014 -9.93923e-015
lhumerus -54.6132 -10.3832 78.5252
lradius 27.0222
lwrist 36.435
lhand -17.9972 28.837
lfingers 7.12502
lthumb 8.27307 58.655
rfemur -43.0664 9.47577 29.2669
rtibia 54.8442
rfoot -31.6698 -22.1981
rtoes 14.5243
lfemur -56.237 3.7665 -18.5008
ltibia 78.9506
lfoot -7.10592 8.26869
ltoes -23.2114
134
root 1.57409 16.0607 23.8994 -153.81 -8.89759 -177.705
lowerback -6.95539 -3.72717 2.63619
upperback -7.34758 -5.82231 4.22924
thorax -3.54809 -3.28505 2.71026
lowerneck -17.3638 1.93479 0.0768425
upperneck 26.461 4.66605 -2.57989
head 11.5846 2.19446 -0.180732
rclavicle -1.79403e-014 -8.74653e-015
rhumerus -39.076 -6.04315 -68.5956
rradius 39.7326
rwrist -42.8848
rhand -12.1285 -2.8723
rfingers 7.12502
rthumb 13.9331 -32.3855
lclavicle -1.79403e-014 -8.74653e-015
lhumerus -57.6032 -9.431 79.1763
lradius 27.895
lwrist 36.9795
lhand -17.0441 27.8818
lfingers 7.12502
lthumb 9.19277 57.6614
rfemur -39.5196 9.06264 31.0772
rtibia 54.0728
rfoot -33.5348 -23.4512
rtoes 14.8018
lfemur -56.4979 1.74634 -16.7742
ltibia 80.112
lfoot -10.3297 8.39221
ltoes -23.251
135
root 1.54077 15.9217 23.771 -153.964 -8.62586 -176.375
lowerback -6.15568 -3.19376 4.50253
upperback -7.35559 -5.14767 4.34342
thorax -4.17439 -3.03831 1.9013
lowerneck -18.0589 1.93998 -0.00926475
upperneck 26.212 4.61544 -2.60775
head 11.6258 2.12397 -0.180905
rclavicle -6.00827e-014 1.19271e-014
rhumerus -39.7886 -4.14579 -71.0803
rradius 42.8448
rwrist -46.4122
rhand -11.7598 -3.07884
rfingers 7.12502
rthumb 14.2884 -32.5672
lclavicle -6.00827e-014 1.19271e-014
lhumerus -60.5302 -8.66683 80.0691
lradius 28.8969
lwrist 38.0633
lhand -16.0416 26.65
lfingers 7.12502
lthumb 10.1601 56.3847
rfemur -38.4323 9.02309 32.5875
rtibia 53.5219
rfoot -34.3886 -23.7387
rtoes 13.3912
lfemur -59.0568 1.12923 -15.3445
ltibia 81.4618
lfoot -12.0073 9.5175
ltoes -21.2861
136
root 1.5055 15.7932 23.6411 -154.259 -8.50662 -175.547
lowerback -5.56462 -2.79233 5.8752
upperback -6.94102 -4.5753 4.32804
thorax -4.18082 -2.78765 1.16375
lowerneck -19.0271 1.87392 -0.25495
upperneck 25.592 4.39946 -2.51893
head 11.5686 1.95781 -0.140473
rclavicle 7.47927e-014 -2.66371e-014
rhumerus -40.0615 -2.38263 -73.5501
rradius 46.4309
rwrist -50.3227
rhand -11.4533 -2.5793
rfingers 7.12502
rthumb 14.5838 -32.0466
lclavicle 7.47927e-014 -2.66371e-014
lhumerus -62.8264 -8.00797 80.8775
lradius 30.2946
lwrist 39.6954
lhand -15.2498 25.6476
lfingers 7.12502
lthumb 10.9238 55.3434
rfemur -37.0739 8.77846 33.6059
rtibia 52.8866
rfoot -36.0958 -23.9595
rtoes 11.3033
lfemur -61.366 0.100058 -14.3292
ltibia 82.4421
lfoot -13.9876 10.3374
ltoes -22.1351
137
root 1.4598 15.6528 23.5262 -154.042 -7.95332 -174.376
lowerback -6.41198 -2.07676 7.55637
upperback -5.86298 -3.75219 4.24308
thorax -2.67563 -2.362 0.0520515
lowerneck -20.3641 1.76989 -0.664561
upperneck 24.2674 3.96986 -2.09469
head 11.3002 1.69664 0.00853287
rclavicle 2.03754e-014 4.29375e-014
rhumerus -38.9305 -1.08841 -75.9938
rradius 49.5213
rwrist -53.7662
rhand -11.3406 -1.37095
rfingers 7.12502
rthumb 14.6924 -30.8304
lclavicle 2.03754e-014 4.29375e-014
lhumerus -63.8806 -7.60729 81.5591
lradius 32.2991
lwrist 42.3621
lhand -14.9698 25.3401
lfingers 7.12502
lthumb 11.1939 55.0214
rfemur -36.3372 8.56594 34.6495
rtibia 52.2517
rfoot -37.5926 -23.2742
rtoes 9.74596
lfemur -64.4569 -0.469995 -13.1176
ltibia 83.4117
lfoot -16.0001 10.9764
ltoes -23.6245
138
root 1.42139 15.5303 23.3832 -154.755 -7.92177 -173.608
lowerback -4.59661 -1.7126 8.93827
upperback -6.16991 -3.09269 4.12819
thorax -4.07476 -2.13952 -0.688855
lowerneck -20.1456 1.61174 -0.964634
upperneck 23.8785 3.66753 -1.6517
head 11.0923 1.58715 0.16556
rclavicle 2.95195e-014 -2.78299e-015
rhumerus -40.5342 1.32948 -78.2433
rradius 53.0588
rwrist -57.1978
rhand -11.9158 -0.193461
rfingers 7.12502
rthumb 14.1382 -29.6924
lclavicle 2.95195e-014 -2.78299e-015
lhumerus -67.6636 -7.23578 82.36
lradius 34.7165
lwrist 45.2888
lhand -14.677 24.8357
lfingers 7.12502
lthumb 11.4763 54.5016
rfemur -34.3537 8.3075 35.5871
rtibia 51.6072
rfoot -39.5069 -22.8293
rtoes 10.5392
lfemur -66.1758 -1.68151 -11.9315
ltibia 83.9923
lfoot -17.4493 11.5798
ltoes -20.9808
139
root 1.35414 15.4413 23.1886 -156.384 -6.33695 -172.194
lowerback -2.82578 -0.942329 10.6393
upperback -5.4304 -1.82977 3.95386
thorax -4.27615 -1.53621 -1.76537
lowerneck -21.0998 1.44998 -1.18273
upperneck 23.5519 3.32923 -1.30959
head 11.1398 1.42066 0.275983
rclavicle 2.00773e-014 -3.77691e-014
rhumerus -41.0989 3.8813 -80.5583
rradius 57.0683
rwrist -60.752
rhand -13.1147 0.54479
rfingers 7.12502
rthumb 12.9826 -29.0313
lclavicle 2.00773e-014 -3.77691e-014
lhumerus -70.2954 -6.54841 82.5464
lradius 37.2269
lwrist 48.4017
lhand -13.7633 24.4867
lfingers 7.12502
lthumb 12.3573 54.1015
rfemur -30.961 8.19694 36.56
rtibia 50.6691
rfoot -40.8814 -21.7714
rtoes 10.6776
lfemur -66.1437 -1.68293 -10.8339
ltibia 84.2315
lfoot -19.4694 12.1962
ltoes -18.7131
140
root 1.34078 15.3318 23.0987 -155.482 -7.4231 -171.703
lowerback -2.92441 -0.793927 11.6573
upperback -5.4228 -1.68053 4.06593
thorax -4.2356 -1.51229 -2.2066
lowerneck -22.7026 1.15121 -1.58138
upperneck 23.3661 2.85633 -0.907308
head 11.3613 1.17434 0.421612
rclavicle -2.44505e-014 3.53837e-014
rhumerus -40.9738 6.34515 -82.5293
rradius 61.072
rwrist -64.1442
rhand -14.2819 1.16976
rfingers 7.12502
rthumb 11.8573 -28.4745
lclavicle -2.44505e-014 3.53837e-014
lhumerus -72.1105 -5.51855 82.1561
lradius 39.7392
lwrist 51.074
lhand -12.0715 23.8191
lfingers 7.12502
lthumb 13.9881 53.3284
rfemur -31.209 8.18796 37.4156
rtibia 49.9712
rfoot -42.134 -22.107
rtoes 10.835
lfemur -70.5173 -3.33277 -9.22521
ltibia 84.2991
lfoot -19.6553 12.4856
ltoes -19.888
141
root 1.30401 15.2559 22.9522 -155.909 -7.09831 -170.979
lowerback -1.9518 -0.348302 12.5459
upperback -5.11905 -0.940733 4.0697
thorax -4.40089 -1.17101 -2.68391
lowerneck -23.7988 0.801877 -1.93396
upperneck 23.2248 2.39499 -0.703477
head 11.51 0.932714 0.483352
rclavicle 4.37326e-015 -7.55382e-015
rhumerus -41.2355 9.08122 -84.2319
rradius 65.0986
rwrist -68.0623
rhand -14.6689 2.58205
rfingers 7.12502
rthumb 11.4841 -27.0834
lclavicle 4.37326e-015 -7.55382e-015
lhumerus -74.248 -4.30935 81.4992
lradius 42.3916
lwrist 52.9807
lhand -9.99989 22.9525
lfingers 7.12502
lthumb 15.9838 52.313
rfemur -29.4501 7.96055 38.0736
rtibia 49.0295
rfoot -43.0001 -21.6387
rtoes 8.94935
lfemur -72.4978 -4.18068 -8.04501
ltibia 83.9063
lfoot -20.3921 12.6565
ltoes -20.7462
142
root 1.27051 15.1917 22.7967 -156.312 -6.56821 -170.27
lowerback -0.924414 0.191926 13.2273
upperback -4.95743 -0.0524637 4.07632
thorax -4.70187 -0.769168 -3.05918
lowerneck -24.527 0.763106 -2.30747
upperneck 23.1164 1.86524 -0.653823
head 11.6031 0.427117 0.430266
rclavicle -3.18055e-015 1.15295e-014
rhumerus -41.5743 11.8717 -85.692
rradius 69.0733
rwrist -71.7633
rhand -14.2293 4.14014
rfingers 7.12502
rthumb 11.908 -25.5012
lclavicle -3.18055e-015 1.15295e-014
lhumerus -76.7721 -3.3642 81.025
lradius 45.6643
lwrist 54.7261
lhand -7.79838 22.3305
lfingers 7.12502
lthumb 18.1028 51.508
rfemur -27.7102 7.70028 38.667
rtibia 48.1199
rfoot -43.3946 -21.2682
rtoes 7.53382
lfemur -74.2479 -4.71316 -6.95091
ltibia 83.168
lfoot -20.8532 12.4302
ltoes -19.2294
143
root 1.24321 15.1363 22.6301 -156.656 -5.8749 -169.678
lowerback -0.11127 0.741338 13.591
upperback -4.8552 0.821176 4.04649
thorax -4.92583 -0.363127 -3.3169
lowerneck -24.7771 0.376314 -2.5383
upperneck 23.0648 1.42087 -0.625763
head 11.6334 0.215646 0.405767
rclavicle -1.51076e-014 1.08536e-013
rhumerus -41.8574 14.4251 -87.0507
rradius 72.6939
rwrist -74.1341
rhand -13.0027 4.55406
rfingers 7.12502
rthumb 13.0906 -25.0151
lclavicle -1.51076e-014 1.08536e-013
lhumerus -79.4836 -2.39469 80.2254
lradius 49.1208
lwrist 56.3221
lhand -5.22344 21.5
lfingers 7.12502
lthumb 20.5787 50.4292
rfemur -25.9915 7.36143 39.0689
rtibia 47.146
rfoot -43.4813 -20.5195
rtoes 7.83336
lfemur -75.5554 -4.98736 -6.06966
ltibia 81.9883
lfoot -21.2309 12.4167
ltoes -16.7577
144
root 1.22289 15.1451 22.4349 -156.898 -4.94786 -169.33
lowerback 0.551803 1.31239 13.5109
upperback -4.8496 1.70477 3.94641
thorax -5.15831 0.0625708 -3.41952
lowerneck -24.5744 0.00912067 -2.74109
upperneck 22.8225 0.965897 -0.58609
head 11.5071 0.00656977 0.377133
rclavicle 2.06736e-014 -4.25399e-014
rhumerus -42.2485 16.7563 -88.3037
rradius 76.2582
rwrist -75.9468
rhand -11.6836 4.39326
rfingers 7.12502
rthumb 14.3618 -25.0899
lclavicle 2.06736e-014 -4.25399e-014
lhumerus -82.372 -1.44961 79.1746
lradius 52.7446
lwrist 57.6621
lhand -2.84443 20.5974
lfingers 7.12502
lthumb 22.8633 49.2622
rfemur -24.2974 6.7874 39.0602
rtibia 46.193
rfoot -43.4179 -19.3838
rtoes 8.32639
lfemur -76.9851 -5.03909 -5.37206
ltibia 80.425
lfoot -21.6049 12.4894
ltoes -15.688
145
root 1.20825 15.117 22.2445 -156.966 -3.99007 -168.948
lowerback 1.06123 1.93732 13.2123
upperback -4.8834 2.61945 3.93266
thorax -5.34802 0.510421 -3.32007
lowerneck -24.3622 -0.34006 -3.17241
upperneck 22.584 0.554165 -0.295984
head 11.3797 -0.169678 0.487304
rclavicle 1.15295e-014 1.43125e-014
rhumerus -42.5093 19.0261 -89.2828
rradius 79.975
rwrist -77.5163
rhand -10.6438 4.17257
rfingers 7.12502
rthumb 15.3636 -25.2366
lclavicle 1.15295e-014 1.43125e-014
lhumerus -85.0106 -0.526256 78.1676
lradius 56.3231
lwrist 58.2507
lhand -0.42249 19.766
lfingers 7.12502
lthumb 25.1856 48.1243
rfemur -22.9138 6.74727 39.0732
rtibia 45.398
rfoot -43.2899 -18.4234
rtoes 7.46159
lfemur -78.1374 -4.75464 -4.87451
ltibia 78.6839
lfoot -21.7849 12.0747
ltoes -16.567
